<?xml version="1.0" encoding="utf-8"?>
<!-- Generator: Adobe Illustrator 17.1.0, SVG Export Plug-In . SVG Version: 6.00 Build 0)  -->
<!DOCTYPE svg PUBLIC "-//W3C//DTD SVG 1.1//EN" "http://www.w3.org/Graphics/SVG/1.1/DTD/svg11.dtd">
<svg version="1.1" id="Capa_1" xmlns:ev="http://www.w3.org/2001/xml-events"
	 xmlns="http://www.w3.org/2000/svg" xmlns:xlink="http://www.w3.org/1999/xlink" x="0px" y="0px" viewBox="245 4643 64 27.5"
	 enable-background="new 245 4643 64 27.5" xml:space="preserve">
<path fill="#999999" d="M304.8,4661.4c-0.5,1.2-1.2,2.2-2.1,3.1c-0.9,0.9-1.9,1.6-3.1,2.1c-1.2,0.5-2.5,0.8-3.8,0.8
	c-1.4,0-2.6-0.3-3.8-0.8c-1.2-0.5-2.2-1.2-3.1-2.1c-0.9-0.9-1.6-1.9-2.1-3.1c-0.5-1.2-0.8-2.4-0.8-3.8c0-1.3,0.3-2.6,0.8-3.8
	c0.5-1.2,1.2-2.2,2.1-3.1c0.9-0.9,1.9-1.6,3.1-2.1c1.2-0.5,2.5-0.8,3.8-0.8c1.4,0,2.6,0.3,3.8,0.8c1.2,0.5,2.2,1.2,3.1,2.1
	c0.9,0.9,1.6,1.9,2.1,3.1c0.5,1.2,0.8,2.5,0.8,3.8C305.6,4659,305.3,4660.2,304.8,4661.4z M303.7,4654.2c-0.5-1.1-1.1-2-1.9-2.8
	c-0.8-0.8-1.7-1.4-2.8-1.9c-1.1-0.5-2.2-0.7-3.4-0.7s-2.3,0.2-3.4,0.7c-1.1,0.5-2,1.1-2.8,1.9c-0.8,0.8-1.4,1.7-1.9,2.8
	c-0.4,1.1-0.7,2.2-0.7,3.4c0,1.2,0.2,2.3,0.7,3.4c0.4,1,1.1,1.9,1.9,2.7c0.8,0.8,1.7,1.4,2.7,1.8c1,0.5,2.2,0.7,3.3,0.7
	c1.2,0,2.3-0.2,3.4-0.7c1.1-0.5,2-1.1,2.8-1.9c0.8-0.8,1.4-1.7,1.9-2.7c0.5-1,0.7-2.2,0.7-3.4
	C304.4,4656.4,304.2,4655.3,303.7,4654.2z M281.2,4661.4c1.5,1.9,3,3.8,4.6,5.8h-1.4c-1.4-1.8-2.9-3.6-4.3-5.4
	c-1.4-1.8-2.8-3.6-4.3-5.4c-0.4,0.4-0.8,0.8-1.2,1.1c-0.4,0.4-0.8,0.8-1.2,1.1v8.5h-1.1V4648h1.1v8.6c0,0.1,0,0.3,0,0.4
	c0,0.1,0,0.3,0,0.4c0.1-0.1,0.2-0.2,0.2-0.3c0.1-0.1,0.2-0.2,0.2-0.3c1.6-1.5,3.1-2.9,4.7-4.4c1.6-1.5,3.1-2.9,4.7-4.4h1.5l-8.1,7.6
	C278.2,4657.6,279.7,4659.5,281.2,4661.4z M267.9,4648h1.1v19.1h-1.1V4648z M256.5,4668c-1.4-3.4-2.9-6.7-4.3-10
	c-1.4-3.3-2.8-6.6-4.3-10h1.2c1.2,2.8,2.4,5.6,3.6,8.3c1.2,2.8,2.4,5.5,3.6,8.3c0,0.1,0.1,0.3,0.1,0.4c0,0.1,0.1,0.3,0.1,0.4
	c0-0.1,0.1-0.3,0.1-0.4c0-0.1,0.1-0.3,0.1-0.4c1.2-2.8,2.4-5.6,3.6-8.3c1.2-2.8,2.4-5.5,3.6-8.3h1.2c-1.4,3.4-2.9,6.7-4.3,10
	C259.4,4661.3,258,4664.7,256.5,4668z"/>
</svg>
